HIERARCHY
ROOT RootJoint
{
    OFFSET   0.000000   0.000000   0.000000
    CHANNELS 6 Xposition Yposition Zposition Xrotation Yrotation Zrotation
    JOINT pelvis_lowerback
    {
        OFFSET   0.000000   0.093605   0.000000
        CHANNELS 3 Xrotation Yrotation Zrotation
        JOINT lowerback_torso
        {
            OFFSET   0.000000   0.100000   0.000000
            CHANNELS 3 Xrotation Yrotation Zrotation
            JOINT torso_head
            {
                OFFSET   0.000000   0.282350   0.000000
                CHANNELS 3 Xrotation Yrotation Zrotation
                End Site
                {
                    OFFSET   0.000000   0.192650   0.000000
                }
            }
            JOINT rTorso_Clavicle
            {
                OFFSET  -0.001000   0.157500   0.000000
                CHANNELS 3 Xrotation Yrotation Zrotation
                JOINT rShoulder
                {
                    OFFSET  -0.117647   0.000000   0.000000
                    CHANNELS 3 Xrotation Yrotation Zrotation
                    JOINT rElbow
                    {
                        OFFSET  -0.245000   0.000000   0.000000
                        CHANNELS 3 Xrotation Yrotation Zrotation
                        JOINT rWrist
                        {
                            OFFSET  -0.240000   0.000000   0.000000
                            CHANNELS 3 Xrotation Yrotation Zrotation
                            End Site
                            {
                                OFFSET  -0.116353  -0.002500   0.000000
                            }
                        }
                    }
                }
            }
            JOINT lTorso_Clavicle
            {
                OFFSET   0.001000   0.157500   0.000000
                CHANNELS 3 Xrotation Yrotation Zrotation
                JOINT lShoulder
                {
                    OFFSET   0.117647   0.000000   0.000000
                    CHANNELS 3 Xrotation Yrotation Zrotation
                    JOINT lElbow
                    {
                        OFFSET   0.245000   0.000000   0.000000
                        CHANNELS 3 Xrotation Yrotation Zrotation
                        JOINT lWrist
                        {
                            OFFSET   0.240000   0.000000   0.000000
                            CHANNELS 3 Xrotation Yrotation Zrotation
                            End Site
                            {
                                OFFSET   0.116353  -0.002500   0.000000
                            }
                        }
                    }
                }
            }
        }
    }
    JOINT rHip
    {
        OFFSET  -0.100000  -0.051395   0.000000
        CHANNELS 3 Xrotation Yrotation Zrotation
        JOINT rKnee
        {
            OFFSET   0.000000  -0.410000   0.000000
            CHANNELS 3 Xrotation Yrotation Zrotation
            JOINT rAnkle
            {
                OFFSET   0.000000  -0.390000   0.000000
                CHANNELS 3 Xrotation Yrotation Zrotation
                JOINT rToeJoint
                {
                    OFFSET   0.000000  -0.050000   0.130000
                    CHANNELS 3 Xrotation Yrotation Zrotation
                    End Site
                    {
                        OFFSET  -0.010000   0.002000   0.060000
                    }
                }
            }
        }
    }
    JOINT lHip
    {
        OFFSET   0.100000  -0.051395   0.000000
        CHANNELS 3 Xrotation Yrotation Zrotation
        JOINT lKnee
        {
            OFFSET   0.000000  -0.410000   0.000000
            CHANNELS 3 Xrotation Yrotation Zrotation
            JOINT lAnkle
            {
                OFFSET   0.000000  -0.390000   0.000000
                CHANNELS 3 Xrotation Yrotation Zrotation
                JOINT lToeJoint
                {
                    OFFSET   0.000000  -0.050000   0.130000
                    CHANNELS 3 Xrotation Yrotation Zrotation
                    End Site
                    {
                        OFFSET   0.010000   0.002000   0.060000
                    }
                }
            }
        }
    }
}
MOTION
Frames: 17
Frame Time:   0.008333
 -2.397682   0.890813   4.776548  -2.268281  -3.462466   2.149288   8.137255  -3.654421  -2.836177   2.645295  -4.299213   1.827347   0.314660   3.010222   0.111186   4.270778  -5.644310  11.496061  11.902977   7.038295  47.307022  -0.000041  10.599593  -0.000114   7.668506   2.531132   5.061524  -1.620935  -1.364695  -6.819697  -4.192733 -15.892237 -36.700563  -0.005209 -29.669219  -0.000301   7.944501  -6.048534   0.483047 -25.659421   8.643429  -5.228391  22.704514  -0.010198  -0.025265  -8.312612   0.449751   4.333035  -2.561595   0.000038   0.002053  11.746972  -1.861682  -3.739149  11.691843  -0.000050  -0.000264 -18.339532  -1.851525   2.664498  -4.519347  -0.003621  -0.000730
 -2.399106   0.889842   4.785521  -2.392218  -3.165805   2.100250   8.085083  -3.724804  -2.780858   2.798150  -4.343175   1.917075   0.341904   3.001203   0.026322   4.360212  -5.722489  11.595601  12.028764   6.907239  47.163146  -0.000052  10.519303  -0.000008   7.728588   2.572706   5.112886  -1.594996  -1.448149  -6.849034  -4.148201 -16.018782 -36.739009  -0.004001 -30.103019   0.000055   8.047736  -6.056323   0.547681 -25.532722   8.622756  -5.232867  21.762615  -0.007941  -0.022674  -8.071835   0.480643   4.299424  -2.402639   0.000037   0.002152  12.329691  -1.934983  -3.527590  11.951578  -0.000134   0.000367 -18.340407  -2.038128   2.303809  -3.803735  -0.001257  -0.000355
 -2.400607   0.888901   4.794730  -2.514548  -2.832902   2.038301   7.997778  -3.792715  -2.706611   2.953118  -4.390255   2.011603   0.370138   2.991753  -0.047767   4.467142  -5.815373  11.680391  12.164916   6.767830  47.023779  -0.000057  10.434816   0.000088   7.792437   2.578435   5.172103  -1.542825  -1.515546  -6.909453  -4.089806 -16.131500 -36.809329  -0.002945 -30.505353   0.000159   8.149308  -6.065530   0.525113 -25.340877   8.583311  -5.195917  20.998570  -0.005906  -0.020403  -7.838507   0.508406   4.268013  -2.233205  -0.000041   0.002286  12.897356  -2.002788  -3.289415  12.259214  -0.000199   0.001071 -18.297654  -2.217182   1.980355  -5.356312  -0.004019  -0.001301
 -2.402170   0.887931   4.804063  -2.606816  -2.498923   1.985997   7.884045  -3.849000  -2.637791   3.086083  -4.431243   2.097966   0.391840   2.983367  -0.113392   4.579451  -5.913825  11.755516  12.301525   6.628396  46.893333  -0.000052  10.351249   0.000168   7.856053   2.558929   5.236076  -1.477420  -1.565753  -6.981651  -4.024162 -16.228671 -36.888822  -0.002116 -30.877332   0.000096   8.246000  -6.065415   0.456607 -25.118268   8.539960  -5.135250  20.325132  -0.004116  -0.018367  -7.618756   0.534872   4.238886  -2.074539  -0.000157   0.002349  13.432405  -2.073053  -3.050330  12.576944  -0.000262   0.001652 -18.215909  -2.399694   1.690997  -6.914498  -0.005757  -0.002109
 -2.403779   0.886890   4.813455  -2.662130  -2.173453   1.948253   7.753108  -3.893705  -2.578653   3.195708  -4.463874   2.173346   0.407530   2.975795  -0.173585   4.689359  -6.010804  11.821785  12.432795   6.494049  46.770824  -0.000039  10.271366   0.000234   7.917965   2.528810   5.300232  -1.406592  -1.602901  -7.054945  -3.955866 -16.313011 -36.968229  -0.001493 -31.221735  -0.000038   8.338024  -6.054330   0.369575 -24.881101   8.494532  -5.058478  19.715792  -0.002572  -0.016518  -7.412846   0.559855   4.211784  -1.928015  -0.000285   0.002338  13.932274  -2.143021  -2.818278  12.891237  -0.000321   0.002087 -18.110562  -2.581601   1.428108  -8.453973  -0.006759  -0.002753
 -2.405452   0.885784   4.822878  -2.679035  -1.869054   1.929079   7.610862  -3.924366  -2.536454   3.284550  -4.485493   2.236770   0.418883   2.968997  -0.229702   4.792441  -6.102231  11.883600  12.555385   6.367918  46.656588  -0.000023  10.196571   0.000287   7.977592   2.497047   5.360898  -1.333968  -1.628726  -7.124893  -3.886825 -16.385585 -37.042462  -0.001027 -31.540410  -0.000187   8.425865  -6.031466   0.279440 -24.637762   8.448840  -4.967536  19.158162  -0.001243  -0.014798  -7.220118   0.583368   4.186482  -1.792393  -0.000414   0.002264  14.401366  -2.220156  -2.602823  13.192594  -0.000379   0.002336 -18.020587  -2.790041   1.279913  -9.828760  -0.006084  -0.002436
 -2.407215   0.884572   4.832294  -2.655257  -1.542529   1.919221   7.462104  -3.958112  -2.501291   3.355288  -4.508123   2.294514   0.426789   2.962211  -0.282036   4.889492  -6.189436  11.940552  12.669986   6.249403  46.551125  -0.000003  10.126953   0.000335   8.034200   2.468673   5.420263  -1.265058  -1.650859  -7.187715  -3.821286 -16.452097 -37.110711  -0.000693 -31.837223  -0.000341   8.509975  -6.004553   0.190577 -24.388484   8.400299  -4.868122  18.646783  -0.000146  -0.013387  -7.040071   0.605018   4.162872  -1.668767  -0.000533   0.002184  14.830103  -2.270136  -2.390684  13.478654  -0.000379   0.002614 -17.905536  -2.984974   1.243542 -11.300846  -0.004097  -0.002739
 -2.409216   0.884082   4.842124  -2.711424  -1.237401   1.883084   7.309732  -4.025559  -2.469276   3.498098  -4.529362   2.398550   0.466921   2.882920  -0.359825   5.000091  -6.219614  12.043612  12.748845   6.133557  46.387514   0.000006  10.019523   0.000421   8.108023   2.434926   5.486196  -1.178630  -1.661560  -7.309349  -3.598951 -16.408699 -37.260123  -0.000189 -31.999721  -0.000244   8.622319  -6.076845   0.226052 -24.227597   8.211532  -4.614315  19.033274  -0.001235  -0.009951  -6.545898   0.552561   3.912567  -1.447223  -0.000610   0.001867  15.181770  -2.384067  -2.130622  14.052693  -0.000716   0.003156 -17.353568  -3.078846   0.921140 -14.018919  -0.008665  -0.004934
 -2.411471   0.884050   4.852284  -2.777705  -0.895162   1.815355   7.138176  -4.101110  -2.411627   3.647562  -4.550882   2.508223   0.504090   2.802870  -0.425827   5.116346  -6.262683  12.142214  12.831092   6.017130  46.239570   0.000010   9.915410   0.000486   8.180429   2.386443   5.564426  -1.044762  -1.639644  -7.466615  -3.353394 -16.341132 -37.438358   0.000211 -32.133119  -0.000215   8.731552  -6.074659   0.151966 -23.994075   8.005252  -4.264712  19.563552  -0.002825  -0.006612  -6.070931   0.499966   3.679926  -1.201913  -0.000897   0.001730  15.497223  -2.470039  -1.829157  14.715213  -0.000959   0.004053 -16.600016  -3.195788   0.864605 -16.603056  -0.006215  -0.006224
 -2.413933   0.884154   4.862611  -2.810722  -0.532514   1.724580   6.944316  -4.164785  -2.337850   3.776752  -4.563854   2.617021   0.533475   2.727440  -0.482622   5.236973  -6.315817  12.222987  12.916480   5.900150  46.104329   0.000033   9.815829   0.000547   8.249848   2.334613   5.660946  -0.892739  -1.597260  -7.625110  -3.104866 -16.264358 -37.621885   0.000477 -32.250987  -0.000243   8.835581  -6.036479   0.007170 -23.735341   7.801733  -3.848017  20.111258  -0.004327  -0.003620  -5.625303   0.450380   3.464343  -0.973106  -0.001224   0.001721  15.784345  -2.564472  -1.479945  15.435603  -0.001260   0.004951 -15.648321  -3.311371   0.792180 -19.577508  -0.004510  -0.007742
 -2.416535   0.884226   4.872991  -2.805782  -0.156408   1.632842   6.743993  -4.214831  -2.265281   3.883742  -4.566986   2.718089   0.555734   2.657066  -0.533610   5.354511  -6.370474  12.286391  13.000058   5.786577  45.975814   0.000076   9.721733   0.000612   8.316379   2.281787   5.761326  -0.739687  -1.544829  -7.770785  -2.863999 -16.185000 -37.795782   0.000629 -32.357687  -0.000299   8.934787  -5.980883  -0.160079 -23.470129   7.606341  -3.404253  20.645488  -0.005553  -0.001089  -5.208750   0.403691   3.264227  -0.763128  -0.001510   0.001769  16.033942  -2.671270  -1.108582  16.127254  -0.001547   0.005615 -14.621382  -3.435228   0.713815 -22.613431  -0.003088  -0.008837
 -2.419232   0.884153   4.883375  -2.765499   0.224172   1.548465   6.546038  -4.250006  -2.198013   3.973154  -4.559344   2.808682   0.573465   2.591608  -0.580917   5.464476  -6.421699  12.332064  13.078751   5.678939  45.850031   0.000132   9.633896   0.000676   8.380112   2.230983   5.854565  -0.592821  -1.487518  -7.898992  -2.635207 -16.106286 -37.954911   0.000700 -32.455669  -0.000362   9.029595  -5.917079  -0.325156 -23.207138   7.421157  -2.952753  21.156490  -0.006464   0.000956  -4.819824   0.359664   3.078201  -0.571211  -0.001728   0.001826  16.250853  -2.787265  -0.730085  16.788448  -0.001800   0.006068 -13.572162  -3.567294   0.635976 -25.630217  -0.001825  -0.009457
 -2.421888   0.884636   4.893329  -2.708312   0.619176   1.295517   6.439291  -4.273932  -1.975797   4.073771  -4.536748   2.954876   0.584675   2.530960  -0.620764   5.531335  -6.431148  12.373527  13.128574   5.597709  45.706947   0.000167   9.557720   0.000762   8.439051   2.188795   5.888849  -0.464785  -1.460233  -8.064823  -2.431618 -16.044933 -38.122059   0.000801 -32.546520  -0.000355   9.119800  -5.842155  -0.459532 -23.074256   7.375113  -2.506927  21.982062  -0.006679   0.004736  -4.244344   0.373369   2.850101  -0.386293  -0.001451   0.002190  16.419088  -2.888270  -0.181415  17.428027  -0.002025   0.006280 -12.482135  -3.664001   0.559187 -28.235545  -0.000602  -0.010035
 -2.424360   0.885557   4.903045  -2.724353   0.975562   1.042610   6.439215  -4.303612  -1.713850   4.146454  -4.528102   3.084442   0.622233   2.434372  -0.678384   5.536106  -6.388250  12.409481  13.104140   5.548014  45.529990   0.000242   9.453851   0.000865   8.484165   2.083085   5.920593  -0.383949  -1.457754  -8.178201  -2.056800 -15.933642 -38.446250  -0.000575 -32.278724  -0.000489   9.220927  -5.989647  -0.454241 -22.695172   7.210022  -2.094569  22.491234  -0.006346   0.005591  -3.896227   0.367299   2.524277  -0.180445  -0.001060   0.002317  16.010192  -2.912590   0.321062  19.283442  -0.002955   0.009818 -11.477611  -3.779736   0.385476 -30.373054  -0.001780  -0.011754
 -2.426717   0.886604   4.912937  -2.795940   1.137309   0.820630   6.426303  -4.252684  -1.483637   4.238771  -4.452694   3.182842   0.662737   2.342081  -0.729572   5.522365  -6.333651  12.423031  13.067628   5.513929  45.353038   0.000303   9.364317   0.000869   8.524956   2.001836   5.929658  -0.240808  -1.402327  -8.310140  -1.653553 -15.786198 -38.775588  -0.001808 -31.996352  -0.000585   9.320835  -5.982700  -0.573360 -22.201472   7.056084  -1.688076  22.876848  -0.005903   0.005216  -3.623403   0.361969   2.211917  -0.012647  -0.000791   0.002064  15.582047  -2.905976   0.730280  21.312444  -0.004298   0.010806 -10.437052  -3.871383   0.216366 -31.636935  -0.002721  -0.010754
 -2.429003   0.887633   4.922964  -2.879099   1.168763   0.620525   6.381286  -4.155789  -1.279643   4.320365  -4.331439   3.257468   0.698966   2.255610  -0.775314   5.503260  -6.278354  12.419671  13.029076   5.485797  45.178804   0.000353   9.284287   0.000815   8.561909   1.945103   5.921000  -0.062133  -1.304715  -8.447900  -1.242027 -15.617249 -39.095986  -0.002725 -31.716132  -0.000569   9.417477  -5.885941  -0.764055 -21.674299   6.902604  -1.291331  23.209972  -0.005481   0.004418  -3.388287   0.353843   1.920780   0.134337  -0.000616   0.001670  15.186852  -2.902083   1.081104  23.313586  -0.005939   0.009749  -9.385598  -3.963829   0.048530 -32.066120  -0.002757  -0.008747
 -2.431238   0.888573   4.933055  -2.957054   1.121636   0.432250   6.309379  -4.034883  -1.093268   4.382496  -4.185368   3.317900   0.728666   2.174694  -0.816812   5.481428  -6.223917  12.404583  12.990423   5.461495  45.008794   0.000389   9.211638   0.000733   8.595668   1.903941   5.898134   0.131796  -1.183482  -8.582316  -0.836236 -15.439754 -39.400704  -0.003325 -31.444235  -0.000473   9.510709  -5.737407  -0.985516 -21.145558   6.749195  -0.903052  23.520933  -0.005116   0.003530  -3.174508   0.342956   1.651498   0.266171  -0.000505   0.001259  14.826752  -2.906199   1.396382  25.232676  -0.007595   0.007774  -8.340234  -4.061263  -0.116645 -31.819336  -0.001751  -0.007070
